<svg width="14" height="14" fill="none" xmlns="http://www.w3.org/2000/svg"><circle cx="7" cy="7" r="6.5" fill="#fff" stroke="#EAEAEA"/><path d="M7 4c-1.106 0-2 .79-2 1.765 0 .07.032.137.088.187.056.05.132.077.212.077.08 0 .156-.027.212-.077a.25.25 0 00.088-.187c0-.684.626-1.236 1.4-1.236.774 0 1.4.552 1.4 1.236 0 .3-.089.5-.212.656-.13.164-.306.29-.52.435l-.056.037c-.404.271-.912.612-.912 1.342v.089c0 .07.032.137.088.187.056.05.132.077.212.077.08 0 .156-.028.212-.077a.25.25 0 00.088-.187v-.089c0-.465.286-.657.714-.946l.018-.013c.211-.142.46-.313.648-.552.196-.247.32-.554.32-.96C9 4.79 8.106 4 7 4zm0 6a.429.429 0 00.283-.103.333.333 0 00.117-.25.333.333 0 00-.117-.25A.429.429 0 007 9.294a.429.429 0 00-.283.103.333.333 0 00-.117.25c0 .094.042.183.117.25A.429.429 0 007 10z" fill="#7C7C7C"/></svg>